<?xml version="1.0" standalone="no"?>
<!DOCTYPE svg PUBLIC "-//W3C//DTD SVG 20010904//EN"
 "http://www.w3.org/TR/2001/REC-SVG-20010904/DTD/svg10.dtd">
<svg version="1.0" xmlns="http://www.w3.org/2000/svg"
 width="244.000000pt" height="244.000000pt" viewBox="0 0 244.000000 244.000000"
 preserveAspectRatio="xMidYMid meet">
<metadata>
Created by potrace 1.14, written by Peter Selinger 2001-2017
</metadata>
<g transform="translate(0.000000,244.000000) scale(0.100000,-0.100000)"
fill="#000000" stroke="none">
<path d="M615 1228 c-330 -661 -601 -1204 -603 -1207 -1 -3 540 -6 1203 -6
794 0 1205 3 1204 10 -4 28 -136 283 -149 287 -8 2 -410 3 -892 3 -483 0 -878
1 -878 4 0 12 713 1431 719 1431 8 0 461 -905 461 -920 0 -6 -42 -10 -110 -10
l-110 0 -38 77 c-20 43 -39 80 -42 83 -3 3 -21 39 -41 80 -19 41 -54 113 -78
159 l-42 83 -194 -388 c-107 -214 -193 -390 -191 -391 5 -5 1328 -4 1333 0 4
5 -920 1862 -938 1883 -5 6 -6 14 -2 17 3 4 2 7 -3 7 -5 -1 -279 -541 -609
-1202z"/>
</g>
</svg>
